<?xml version="1.0" encoding="UTF-8"?>
<svg version="1.1" xmlns="http://www.w3.org/2000/svg" width="139" height="103">
<path d="M0 0 C1.23556641 0.01740234 1.23556641 0.01740234 2.49609375 0.03515625 C3.32238281 0.04417969 4.14867188 0.05320312 5 0.0625 C5.63808594 0.07410156 6.27617188 0.08570312 6.93359375 0.09765625 C6.93359375 1.41765625 6.93359375 2.73765625 6.93359375 4.09765625 C7.59359375 2.77765625 8.25359375 1.45765625 8.93359375 0.09765625 C11.90359375 0.09765625 14.87359375 0.09765625 17.93359375 0.09765625 C17.05824333 3.04201676 16.07624735 5.81592657 14.6875 8.55859375 C11.1900475 15.47423637 10.43085904 20.35554172 10.93359375 28.09765625 C11.92359375 24.46765625 12.91359375 20.83765625 13.93359375 17.09765625 C15.25359375 16.76765625 16.57359375 16.43765625 17.93359375 16.09765625 C17.79154634 17.68133372 17.64479222 19.26458943 17.49609375 20.84765625 C17.41488281 21.729375 17.33367187 22.61109375 17.25 23.51953125 C16.9712091 25.79116077 16.54568798 27.89617448 15.93359375 30.09765625 C16.92359375 30.09765625 17.91359375 30.09765625 18.93359375 30.09765625 C19.21074219 29.17082031 19.48789063 28.24398437 19.7734375 27.2890625 C20.13566406 26.09152344 20.49789062 24.89398438 20.87109375 23.66015625 C21.23074219 22.46519531 21.59039062 21.27023438 21.9609375 20.0390625 C22.93359375 17.09765625 22.93359375 17.09765625 23.93359375 16.09765625 C25.93317739 16.05684842 27.93404629 16.05511269 29.93359375 16.09765625 C29.93359375 19.72765625 29.93359375 23.35765625 29.93359375 27.09765625 C30.40796875 25.46828125 30.88234375 23.83890625 31.37109375 22.16015625 C32.80859375 17.22265625 32.80859375 17.22265625 33.93359375 16.09765625 C35.93317739 16.05684842 37.93404629 16.05511269 39.93359375 16.09765625 C40.42859375 18.57265625 40.42859375 18.57265625 40.93359375 21.09765625 C41.59359375 19.44765625 42.25359375 17.79765625 42.93359375 16.09765625 C45.24359375 16.09765625 47.55359375 16.09765625 49.93359375 16.09765625 C51.05859375 17.72265625 51.05859375 17.72265625 51.93359375 20.09765625 C51.18359375 22.78515625 51.18359375 22.78515625 49.93359375 26.09765625 C49.55186499 27.66137849 49.19341989 29.23092351 48.85546875 30.8046875 C48.68112305 31.61010986 48.50677734 32.41553223 48.32714844 33.24536133 C48.19727539 33.85661865 48.06740234 34.46787598 47.93359375 35.09765625 C39.26692708 35.09765625 30.60026042 35.09765625 21.93359375 35.09765625 C20.0784418 35.23036879 18.22434362 35.37810118 16.37109375 35.53515625 C15.37980469 35.61636719 14.38851562 35.69757812 13.3671875 35.78125 C10.98907445 35.83882986 10.98907445 35.83882986 9.93359375 37.09765625 C26.76359375 37.09765625 43.59359375 37.09765625 60.93359375 37.09765625 C60.93359375 39.73765625 60.93359375 42.37765625 60.93359375 45.09765625 C40.80359375 45.09765625 20.67359375 45.09765625 -0.06640625 45.09765625 C-0.39640625 42.12765625 -0.72640625 39.15765625 -1.06640625 36.09765625 C-1.39640625 37.41765625 -1.72640625 38.73765625 -2.06640625 40.09765625 C-5.03640625 40.09765625 -8.00640625 40.09765625 -11.06640625 40.09765625 C-10.46903024 34.83164102 -9.63882507 29.74768845 -8.47265625 24.5703125 C-8.32107056 23.89592636 -8.16948486 23.22154022 -8.01330566 22.52671814 C-7.69580774 21.11886821 -7.37641481 19.71144437 -7.05517578 18.30444336 C-6.56234893 16.14235633 -6.07769744 13.97854299 -5.59375 11.81445312 C-5.2830346 10.44129698 -4.97185386 9.06824603 -4.66015625 7.6953125 C-4.37849609 6.45273682 -4.09683594 5.21016113 -3.80664062 3.92993164 C-2.81428688 0.13300033 -2.81428688 0.13300033 0 0 Z M3.93359375 9.09765625 C4.93359375 11.09765625 4.93359375 11.09765625 4.93359375 11.09765625 Z M45.93359375 20.09765625 C46.93359375 23.09765625 46.93359375 23.09765625 46.93359375 23.09765625 Z M38.93359375 26.09765625 C38.93359375 27.74765625 38.93359375 29.39765625 38.93359375 31.09765625 C39.26359375 31.09765625 39.59359375 31.09765625 39.93359375 31.09765625 C39.93359375 29.44765625 39.93359375 27.79765625 39.93359375 26.09765625 C39.60359375 26.09765625 39.27359375 26.09765625 38.93359375 26.09765625 Z M23.93359375 27.09765625 C24.93359375 29.09765625 24.93359375 29.09765625 24.93359375 29.09765625 Z M33.93359375 27.09765625 C34.93359375 29.09765625 34.93359375 29.09765625 34.93359375 29.09765625 Z M43.93359375 28.09765625 C44.93359375 31.09765625 44.93359375 31.09765625 44.93359375 31.09765625 Z " fill="#034962" transform="translate(74.06640625,26.90234375)"/>
<path d="M0 0 C4.95 0 9.9 0 15 0 C14.31167211 5.5365834 13.61780198 11.07243256 12.91870117 16.60766602 C12.68148341 18.49223835 12.44580293 20.37700483 12.21166992 22.26196289 C11.87558947 24.96552765 11.53405358 27.66835445 11.19140625 30.37109375 C11.08719864 31.21900986 10.98299103 32.06692596 10.87562561 32.9405365 C10.11387171 38.88612829 10.11387171 38.88612829 9 40 C6.32941149 40.14115161 3.67567762 40.04247107 1 40 C1 38.35 1 36.7 1 35 C-0.32 34.67 -1.64 34.34 -3 34 C-3.33 35.98 -3.66 37.96 -4 40 C-6.97 40 -9.94 40 -13 40 C-8.99885814 26.53853119 -4.83256999 13.18778256 0 0 Z M4 12 C5 14 5 14 5 14 Z M3 15 C2.01 18.96 1.02 22.92 0 27 C0.99 27 1.98 27 3 27 C3.33 23.04 3.66 19.08 4 15 C3.67 15 3.34 15 3 15 Z " fill="#05475E" transform="translate(30,27)"/>
<path d="M0 0 C0.99 0 1.98 0 3 0 C2.85795259 1.58367747 2.71119847 3.16693318 2.5625 4.75 C2.48128906 5.63171875 2.40007812 6.5134375 2.31640625 7.421875 C2.03761535 9.69350452 1.61209423 11.79851823 1 14 C1.99 14 2.98 14 4 14 C4.27714844 13.07316406 4.55429688 12.14632812 4.83984375 11.19140625 C5.20207031 9.99386719 5.56429687 8.79632813 5.9375 7.5625 C6.47697266 5.77005859 6.47697266 5.77005859 7.02734375 3.94140625 C8 1 8 1 9 0 C10.99958364 -0.04080783 13.00045254 -0.04254356 15 0 C15 3.63 15 7.26 15 11 C15.474375 9.370625 15.94875 7.74125 16.4375 6.0625 C17.875 1.125 17.875 1.125 19 0 C20.99958364 -0.04080783 23.00045254 -0.04254356 25 0 C25.33 1.65 25.66 3.3 26 5 C26.66 3.35 27.32 1.7 28 0 C30.31 0 32.62 0 35 0 C36.125 1.625 36.125 1.625 37 4 C36.25 6.6875 36.25 6.6875 35 10 C34.61827124 11.56372224 34.25982614 13.13326726 33.921875 14.70703125 C33.7475293 15.51245361 33.57318359 16.31787598 33.39355469 17.14770508 C33.26368164 17.7589624 33.13380859 18.37021973 33 19 C24.33333333 19 15.66666667 19 7 19 C5.12422647 19.1577227 3.24930083 19.32564643 1.375 19.5 C0.37210937 19.5928125 -0.63078125 19.685625 -1.6640625 19.78125 C-2.43492188 19.8534375 -3.20578125 19.925625 -4 20 C-4.38307318 13.23237384 -3.17688744 7.41787022 -1 1 C-0.67 0.67 -0.34 0.34 0 0 Z M31 4 C32 7 32 7 32 7 Z M24 10 C24 11.65 24 13.3 24 15 C24.33 15 24.66 15 25 15 C25 13.35 25 11.7 25 10 C24.67 10 24.34 10 24 10 Z M9 11 C10 13 10 13 10 13 Z M19 11 C20 13 20 13 20 13 Z M29 12 C30 15 30 15 30 15 Z " fill="#060606" transform="translate(89,43)"/>
<path d="M0 0 C2.43816585 -0.0809723 4.87364384 -0.14046972 7.3125 -0.1875 C8.34793945 -0.22520508 8.34793945 -0.22520508 9.40429688 -0.26367188 C14.47219697 -0.3371197 14.47219697 -0.3371197 16.95703125 1.25 C19.28523558 5.15650015 18.4931346 9.9631397 17.4609375 14.2265625 C16.08162779 18.27354812 14.63278966 21.54541239 11 24 C8.29682911 24.60704605 5.78183665 24.81454422 3 25 C2.01 29.95 1.02 34.9 0 40 C-2.97 40 -5.94 40 -9 40 C-8.3292629 32.75231302 -6.66438197 25.75832468 -4.98876953 18.68896484 C-4.49649952 16.61021826 -4.01147825 14.52987349 -3.52734375 12.44921875 C-1.14178228 2.28356456 -1.14178228 2.28356456 0 0 Z M7 8 C6.34 10.97 5.68 13.94 5 17 C8.28814599 14.27393696 8.28814599 14.27393696 9.25 10.25 C9.1675 9.5075 9.085 8.765 9 8 C8.34 8 7.68 8 7 8 Z " fill="#06485D" transform="translate(50,27)"/>
<path d="M0 0 C0.66 0 1.32 0 2 0 C2 7.59 2 15.18 2 23 C5.59777344 22.98839844 9.19554688 22.97679688 12.90234375 22.96484375 C16.37068595 22.95705443 19.83902719 22.95097696 23.30737305 22.94506836 C25.72567172 22.94002651 28.14396733 22.93319322 30.56225586 22.92456055 C34.02979283 22.91248843 37.49728966 22.90677037 40.96484375 22.90234375 C42.05337143 22.89718246 43.14189911 22.89202118 44.26341248 22.88670349 C45.76485558 22.88659019 45.76485558 22.88659019 47.29663086 22.88647461 C48.62566689 22.88314369 48.62566689 22.88314369 49.98155212 22.87974548 C52 23 52 23 53 24 C53.04063832 25.66617115 53.042721 27.33388095 53 29 C12.95408138 29.20638953 12.95408138 29.20638953 -4 28 C-4.12727273 20.19090909 -4.12727273 20.19090909 -2 17 C-1.34 16.34 -0.68 15.68 0 15 C-0.33 14.01 -0.66 13.02 -1 12 C-1.33 12 -1.66 12 -2 12 C-2.05395478 10.37536158 -2.09277195 8.75021459 -2.125 7.125 C-2.14820312 6.22007813 -2.17140625 5.31515625 -2.1953125 4.3828125 C-2 2 -2 2 0 0 Z " fill="#024B63" transform="translate(80,42)"/>
<path d="M0 0 C2.97 0 5.94 0 9 0 C8.14143776 2.88789117 7.23440947 5.58335369 5.75390625 8.21484375 C1.53260792 15.97581433 1.58762181 22.65935177 1.921875 31.25390625 C2 35 2 35 1 37 C17.83 37 34.66 37 52 37 C52 39.64 52 42.28 52 45 C31.87 45 11.74 45 -9 45 C-9.33 42.03 -9.66 39.06 -10 36 C-10.33 36 -10.66 36 -11 36 C-11 33.69 -11 31.38 -11 29 C-10.01 28.67 -9.02 28.34 -8 28 C-8 33.28 -8 38.56 -8 44 C11.14 44 30.28 44 50 44 C49.67 42.35 49.34 40.7 49 39 C24.25 38.505 24.25 38.505 -1 38 C-1 30.41 -1 22.82 -1 15 C-4.29922197 17.19948132 -4.42809901 17.50324145 -5.1875 21.125 C-5.5896875 23.043125 -5.5896875 23.043125 -6 25 C-8.07235306 23.09343519 -8.96375281 21.6693647 -9.1171875 18.8359375 C-8.9387635 16.45436502 -8.65516976 14.29752099 -8 12 C-6.1875 10.5 -6.1875 10.5 -4 9 C-2.45117916 6.08611672 -1.20930877 3.06829938 0 0 Z " fill="#05475E" transform="translate(83,27)"/>
<path d="M0 0 C1.07507813 0.01546875 2.15015625 0.0309375 3.2578125 0.046875 C5.875 0.25 5.875 0.25 6.875 1.25 C7.34475089 6.65213523 7.34475089 6.65213523 5.5 9 C4.96375 9.4125 4.4275 9.825 3.875 10.25 C3.215 10.91 2.555 11.57 1.875 12.25 C1.875 10.27 1.875 8.29 1.875 6.25 C0.02774948 5.55840599 0.02774948 5.55840599 -2.125 5.25 C-3.115 5.91 -4.105 6.57 -5.125 7.25 C-5.52723991 9.31906777 -5.52723991 9.31906777 -5.375 11.625 C-5.35953125 12.39585938 -5.3440625 13.16671875 -5.328125 13.9609375 C-5.19085532 16.25183168 -5.19085532 16.25183168 -4.546875 18.4140625 C-4.125 20.25 -4.125 20.25 -5.125 22.25 C-7.44656597 22.65729228 -9.7818787 22.99438677 -12.125 23.25 C-12.32586443 19.53400809 -12.2769437 18.47791555 -10.125 15.25 C-10.785 15.25 -11.445 15.25 -12.125 15.25 C-12.125 14.26 -12.125 13.27 -12.125 12.25 C-11.465 12.25 -10.805 12.25 -10.125 12.25 C-10.08761719 11.63511719 -10.05023438 11.02023438 -10.01171875 10.38671875 C-9.91310547 9.17435547 -9.91310547 9.17435547 -9.8125 7.9375 C-9.75449219 7.13699219 -9.69648437 6.33648437 -9.63671875 5.51171875 C-8.38971794 0.00016553 -5.14804595 -0.1240493 0 0 Z " fill="#034B66" transform="translate(59.125,28.75)"/>
<path d="M0 0 C0.33 0 0.66 0 1 0 C1.19421438 2.95803435 1.38066186 5.91620163 1.5625 8.875 C1.61857422 9.71675781 1.67464844 10.55851562 1.73242188 11.42578125 C1.78076172 12.23144531 1.82910156 13.03710938 1.87890625 13.8671875 C1.9260376 14.61081543 1.97316895 15.35444336 2.02172852 16.12060547 C2 18 2 18 1 20 C17.83 20 34.66 20 52 20 C52 22.64 52 25.28 52 28 C31.87 28 11.74 28 -9 28 C-9.33 25.03 -9.66 22.06 -10 19 C-10.33 19 -10.66 19 -11 19 C-11 16.69 -11 14.38 -11 12 C-10.01 11.67 -9.02 11.34 -8 11 C-8 16.28 -8 21.56 -8 27 C11.14 27 30.28 27 50 27 C49.67 25.35 49.34 23.7 49 22 C24.745 21.505 24.745 21.505 0 21 C0 14.07 0 7.14 0 0 Z " fill="#093549" transform="translate(83,44)"/>
<path d="M0 0 C2.43816585 -0.0809723 4.87364384 -0.14046972 7.3125 -0.1875 C8.34793945 -0.22520508 8.34793945 -0.22520508 9.40429688 -0.26367188 C12.30962669 -0.3057781 14.45819124 -0.33540542 16.96875 1.21875 C18.30055824 3.51914605 18.30237367 5.04540568 18.1875 7.6875 C18.16042969 8.49574219 18.13335937 9.30398437 18.10546875 10.13671875 C18.05326172 11.05904297 18.05326172 11.05904297 18 12 C17.34 11.67 16.68 11.34 16 11 C15.40644386 8.35139573 15.25790731 5.70802678 15 3 C11.04 3 7.08 3 3 3 C1.51393928 5.97212144 0.69961451 7.90170715 0 11 C-0.33 11.99 -0.66 12.98 -1 14 C-1.66 14 -2.32 14 -3 14 C-2.69147815 12.041036 -2.3780582 10.08284287 -2.0625 8.125 C-1.88847656 7.03445312 -1.71445312 5.94390625 -1.53515625 4.8203125 C-1 2 -1 2 0 0 Z " fill="#0D4354" transform="translate(50,27)"/>
<path d="M0 0 C0.33 0 0.66 0 1 0 C1.33 2.64 1.66 5.28 2 8 C2.33 7.34 2.66 6.68 3 6 C4.64363134 5.27840576 6.31050386 4.60648579 8 4 C7.67 6.64 7.34 9.28 7 12 C4.03 12 1.06 12 -2 12 C-1 3.42857143 -1 3.42857143 0 0 Z " fill="#0B4257" transform="translate(43,55)"/>
<path d="M0 0 C0.33 0.66 0.66 1.32 1 2 C1.66 2.33 2.32 2.66 3 3 C2.5317879 7.77576339 1.75668002 11.04476345 -1 15 C1.31 14.34 3.62 13.68 6 13 C6 14.32 6 15.64 6 17 C3.03 17 0.06 17 -3 17 C-2.36934845 11.2190275 -1.34844868 5.6556294 0 0 Z " fill="#093B4D" transform="translate(66,50)"/>
<path d="M0 0 C4.95 0 9.9 0 15 0 C14.34 5.28 13.68 10.56 13 16 C12.34 15.67 11.68 15.34 11 15 C10.5859375 12.93359375 10.5859375 12.93359375 10.375 10.4375 C10.30023438 9.61121094 10.22546875 8.78492188 10.1484375 7.93359375 C10.09945312 7.29550781 10.05046875 6.65742187 10 6 C10.66 6 11.32 6 12 6 C12 4.35 12 2.7 12 1 C8.7 1.33 5.4 1.66 2 2 C1.67 2.99 1.34 3.98 1 5 C0.34 5 -0.32 5 -1 5 C-0.67 3.35 -0.34 1.7 0 0 Z " fill="#0D3E51" transform="translate(30,27)"/>
<path d="M0 0 C2.97 0 5.94 0 9 0 C7.25 5.75 7.25 5.75 5 8 C5.33 6.02 5.66 4.04 6 2 C4.68 2 3.36 2 2 2 C1.5978125 3.2065625 1.5978125 3.2065625 1.1875 4.4375 C0.5996875 5.7059375 0.5996875 5.7059375 0 7 C-0.99 7.33 -1.98 7.66 -3 8 C-1.125 2.25 -1.125 2.25 0 0 Z " fill="#103E4D" transform="translate(83,27)"/>
<path d="M0 0 C2.97 0 5.94 0 9 0 C8.34 2.97 7.68 5.94 7 9 C6.34 8.67 5.68 8.34 5 8 C5.33 6.02 5.66 4.04 6 2 C4.68 2 3.36 2 2 2 C1.67 2.99 1.34 3.98 1 5 C0.34 5 -0.32 5 -1 5 C-0.67 3.35 -0.34 1.7 0 0 Z " fill="#164153" transform="translate(72,27)"/>
<path d="M0 0 C0.33 0.99 0.66 1.98 1 3 C0.67 3.66 0.34 4.32 0 5 C-2.97 5 -5.94 5 -9 5 C-8.67 3.68 -8.34 2.36 -8 1 C-7.34 1 -6.68 1 -6 1 C-6 1.99 -6 2.98 -6 4 C-4.02 2.68 -2.04 1.36 0 0 Z " fill="#114251" transform="translate(26,62)"/>
<path d="M0 0 C0.66 0 1.32 0 2 0 C2 5.61 2 11.22 2 17 C1.67 17 1.34 17 1 17 C0.67 14.03 0.34 11.06 0 8 C-0.33 8 -0.66 8 -1 8 C-1.04241723 5.66705225 -1.04092937 3.33297433 -1 1 C-0.67 0.67 -0.34 0.34 0 0 Z " fill="#053042" transform="translate(73,55)"/>
<path d="M0 0 C0.66 0 1.32 0 2 0 C1.53199289 4.05606165 1.12046792 7.46588679 -1 11 C-1.66 11 -2.32 11 -3 11 C-2.01 7.37 -1.02 3.74 0 0 Z " fill="#0B4450" transform="translate(28,33)"/>
<path d="M0 0 C0.98120464 3.05263664 0.98120464 4.94736336 0 8 C-1.32 7.67 -2.64 7.34 -4 7 C-3.6875 4.625 -3.6875 4.625 -3 2 C-2.01 1.34 -1.02 0.68 0 0 Z " fill="#0A3848" transform="translate(50,59)"/>
<path d="M0 0 C1.134375 0.020625 2.26875 0.04125 3.4375 0.0625 C3.4375 0.3925 3.4375 0.7225 3.4375 1.0625 C1.7875 1.0625 0.1375 1.0625 -1.5625 1.0625 C-1.8925 3.0425 -2.2225 5.0225 -2.5625 7.0625 C-3.2225 7.0625 -3.8825 7.0625 -4.5625 7.0625 C-4.60504356 5.06295254 -4.60330783 3.06208364 -4.5625 1.0625 C-3.5625 0.0625 -3.5625 0.0625 0 0 Z " fill="#093E4F" transform="translate(54.5625,50.9375)"/>
<path d="M0 0 C0.66 0.33 1.32 0.66 2 1 C2 1.99 2 2.98 2 4 C2.66 4.33 3.32 4.66 4 5 C2.625 6.5 2.625 6.5 1 8 C0.34 8 -0.32 8 -1 8 C-0.67 5.36 -0.34 2.72 0 0 Z " fill="#054658" transform="translate(68,41)"/>
<path d="M0 0 C0.66 0 1.32 0 2 0 C2.25 2.8125 2.25 2.8125 2 6 C0 7.875 0 7.875 -2 9 C-1.34 6.03 -0.68 3.06 0 0 Z " fill="#0E4356" transform="translate(59,35)"/>
<path d="M0 0 C0.33 0.66 0.66 1.32 1 2 C1.66 2 2.32 2 3 2 C2.34 4.31 1.68 6.62 1 9 C0.34 8.34 -0.32 7.68 -1 7 C-0.625 3.375 -0.625 3.375 0 0 Z " fill="#083F53" transform="translate(46,42)"/>
<path d="M0 0 C1.485 0.99 1.485 0.99 3 2 C2.25 6.75 2.25 6.75 0 9 C0 6.03 0 3.06 0 0 Z " fill="#064A62" transform="translate(35,39)"/>
</svg>
